NotoSerifDisplay-Bold.ufo
<glyph name="exclamdown" format="2">
  <advance width="418"/>
  <unicode hex="00A1"/>
  <outline>
    <contour>
      <point x="101" y="-181" type="line"/>
      <point x="318" y="-181" type="line"/>
      <point x="217" y="285" type="line"/>
      <point x="202" y="285" type="line"/>
    </contour>
    <contour>
      <point x="208" y="364" type="curve" smooth="yes"/>
      <point x="255" y="364"/>
      <point x="291" y="385"/>
      <point x="291" y="453" type="curve" smooth="yes"/>
      <point x="291" y="520"/>
      <point x="255" y="542"/>
      <point x="208" y="542" type="curve" smooth="yes"/>
      <point x="164" y="542"/>
      <point x="125" y="520"/>
      <point x="125" y="453" type="curve" smooth="yes"/>
      <point x="125" y="385"/>
      <point x="164" y="364"/>
    </contour>
  </outline>
</glyph>
<glyph name="uni0191" format="2">
  <advance width="797"/>
  <unicode hex="0191"/>
  <anchor x="196" y="-10" name="bottom"/>
  <anchor x="475" y="714" name="top"/>
  <anchor x="775" y="714" name="topright"/>
  <outline>
    <contour>
      <point x="196" y="-10" type="curve" smooth="yes"/>
      <point x="371" y="-10"/>
      <point x="465" y="88"/>
      <point x="465" y="265" type="curve" smooth="yes"/>
      <point x="465" y="366" type="line"/>
      <point x="700" y="366" type="line"/>
      <point x="700" y="376" type="line"/>
      <point x="465" y="376" type="line"/>
      <point x="465" y="704" type="line"/>
      <point x="597" y="704" type="line" smooth="yes"/>
      <point x="708" y="704"/>
      <point x="746" y="668"/>
      <point x="757" y="554" type="curve" smooth="yes"/>
      <point x="760" y="523" type="line"/>
      <point x="770" y="523" type="line"/>
      <point x="763" y="714" type="line"/>
      <point x="174" y="714" type="line"/>
      <point x="174" y="704" type="line"/>
      <point x="224" y="704" type="line" smooth="yes"/>
      <point x="247" y="704"/>
      <point x="266" y="689"/>
      <point x="266" y="654" type="curve" smooth="yes"/>
      <point x="266" y="132" type="line" smooth="yes"/>
      <point x="266" y="34"/>
      <point x="234" y="0"/>
      <point x="182" y="0" type="curve" smooth="yes"/>
      <point x="118" y="0"/>
      <point x="93" y="53"/>
      <point x="93" y="188" type="curve"/>
      <point x="35" y="188"/>
      <point x="-12" y="167"/>
      <point x="-12" y="109" type="curve" smooth="yes"/>
      <point x="-12" y="44"/>
      <point x="47" y="-10"/>
    </contour>
  </outline>
</glyph>
<glyph name="florin" format="2">
  <advance width="509"/>
  <unicode hex="0192"/>
  <anchor x="133" y="-15" name="bottom"/>
  <anchor x="367" y="768" name="top"/>
  <anchor x="589" y="768" name="topright"/>
  <outline>
    <contour>
      <point x="133" y="-15" type="curve" smooth="yes"/>
      <point x="314" y="-15"/>
      <point x="373" y="86"/>
      <point x="373" y="269" type="curve" smooth="yes"/>
      <point x="373" y="526" type="line"/>
      <point x="509" y="526" type="line"/>
      <point x="509" y="536" type="line"/>
      <point x="373" y="536" type="line"/>
      <point x="373" y="643" type="line" smooth="yes"/>
      <point x="373" y="730"/>
      <point x="383" y="758"/>
      <point x="410" y="758" type="curve" smooth="yes"/>
      <point x="440" y="758"/>
      <point x="448" y="724"/>
      <point x="448" y="615" type="curve"/>
      <point x="555" y="615"/>
      <point x="578" y="653"/>
      <point x="578" y="693" type="curve" smooth="yes"/>
      <point x="578" y="726"/>
      <point x="550" y="768"/>
      <point x="402" y="768" type="curve" smooth="yes"/>
      <point x="238" y="768"/>
      <point x="179" y="691"/>
      <point x="179" y="563" type="curve" smooth="yes"/>
      <point x="179" y="536" type="line"/>
      <point x="91" y="536" type="line"/>
      <point x="91" y="526" type="line"/>
      <point x="179" y="526" type="line"/>
      <point x="179" y="110" type="line" smooth="yes"/>
      <point x="179" y="23"/>
      <point x="169" y="-5"/>
      <point x="142" y="-5" type="curve" smooth="yes"/>
      <point x="110" y="-5"/>
      <point x="102" y="29"/>
      <point x="102" y="138" type="curve"/>
      <point x="8" y="138"/>
      <point x="-13" y="102"/>
      <point x="-13" y="65" type="curve" smooth="yes"/>
      <point x="-13" y="29"/>
      <point x="15" y="-15"/>
    </contour>
  </outline>
</glyph>
<glyph name="uni0244" format="2">
  <advance width="769"/>
  <unicode hex="0244"/>
  <anchor x="385" y="0" name="bottom"/>
  <anchor x="385" y="714" name="top"/>
  <anchor x="769" y="714" name="topright"/>
  <outline>
    <contour>
      <point x="10" y="367" type="line"/>
      <point x="759" y="367" type="line"/>
      <point x="759" y="377" type="line"/>
      <point x="10" y="377" type="line"/>
    </contour>
    <component base="U"/>
  </outline>
</glyph>
<glyph name="uni02BE" format="2">
  <advance width="190"/>
  <unicode hex="02BE"/>
  <outline>
    <contour>
      <point x="30" y="577" type="line"/>
      <point x="107" y="577"/>
      <point x="160" y="618"/>
      <point x="160" y="695" type="curve" smooth="yes"/>
      <point x="160" y="772"/>
      <point x="107" y="813"/>
      <point x="30" y="813" type="curve"/>
      <point x="30" y="803" type="line"/>
      <point x="93" y="803"/>
      <point x="148" y="772"/>
      <point x="148" y="695" type="curve" smooth="yes"/>
      <point x="148" y="618"/>
      <point x="93" y="587"/>
      <point x="30" y="587" type="curve"/>
    </contour>
  </outline>
</glyph>
<glyph name="circumflexbelowcomb" format="2">
  <unicode hex="032D"/>
  <anchor x="1" y="0" name="_bottom"/>
  <anchor x="1" y="-217" name="bottom"/>
  <outline>
    <contour>
      <point x="-199" y="-217" type="line"/>
      <point x="-184" y="-217" type="line"/>
      <point x="-125" y="-191"/>
      <point x="-41" y="-146"/>
      <point x="1" y="-120" type="curve"/>
      <point x="42" y="-146"/>
      <point x="126" y="-191"/>
      <point x="185" y="-217" type="curve"/>
      <point x="200" y="-217" type="line"/>
      <point x="200" y="-202" type="line"/>
      <point x="152" y="-164"/>
      <point x="95" y="-102"/>
      <point x="63" y="-57" type="curve"/>
      <point x="-62" y="-57" type="line"/>
      <point x="-94" y="-102"/>
      <point x="-151" y="-164"/>
      <point x="-199" y="-202" type="curve"/>
    </contour>
  </outline>
</glyph>
<glyph name="uni0375" format="2">
  <advance width="266"/>
  <unicode hex="0375"/>
  <outline>
    <contour>
      <point x="48" y="-240" type="line"/>
      <point x="168" y="-240" type="line"/>
      <point x="173" y="-195"/>
      <point x="197" y="-94"/>
      <point x="217" y="-38" type="curve"/>
      <point x="217" y="-22" type="line"/>
      <point x="202" y="-22" type="line"/>
      <point x="154" y="-76"/>
      <point x="79" y="-177"/>
      <point x="48" y="-228" type="curve"/>
    </contour>
  </outline>
</glyph>
<glyph name="uni0488" format="2">
  <advance width="989"/>
  <unicode hex="0488"/>
  <outline>
    <contour>
      <point x="107" y="462" type="curve"/>
      <point x="144" y="462" type="line"/>
      <point x="148" y="501"/>
      <point x="169" y="505"/>
      <point x="209" y="505" type="curve" smooth="yes"/>
      <point x="242" y="505"/>
      <point x="270" y="499"/>
      <point x="274" y="462" type="curve"/>
      <point x="313" y="462" type="line"/>
      <point x="309" y="518"/>
      <point x="273" y="557"/>
      <point x="209" y="557" type="curve" smooth="yes"/>
      <point x="142" y="557"/>
      <point x="110" y="520"/>
    </contour>
    <contour>
      <point x="20" y="224" type="curve"/>
      <point x="57" y="224" type="line"/>
      <point x="61" y="263"/>
      <point x="82" y="267"/>
      <point x="122" y="267" type="curve" smooth="yes"/>
      <point x="155" y="267"/>
      <point x="183" y="261"/>
      <point x="187" y="224" type="curve"/>
      <point x="226" y="224" type="line"/>
      <point x="222" y="280"/>
      <point x="186" y="319"/>
      <point x="122" y="319" type="curve" smooth="yes"/>
      <point x="55" y="319"/>
      <point x="23" y="282"/>
    </contour>
    <contour>
      <point x="107" y="-20" type="curve"/>
      <point x="144" y="-20" type="line"/>
      <point x="148" y="19"/>
      <point x="169" y="23"/>
      <point x="209" y="23" type="curve" smooth="yes"/>
      <point x="242" y="23"/>
      <point x="270" y="17"/>
      <point x="274" y="-20" type="curve"/>
      <point x="313" y="-20" type="line"/>
      <point x="309" y="36"/>
      <point x="273" y="75"/>
      <point x="209" y="75" type="curve" smooth="yes"/>
      <point x="142" y="75"/>
      <point x="110" y="38"/>
    </contour>
    <contour>
      <point x="387" y="-156" type="curve"/>
      <point x="424" y="-156" type="line"/>
      <point x="428" y="-117"/>
      <point x="449" y="-113"/>
      <point x="489" y="-113" type="curve" smooth="yes"/>
      <point x="522" y="-113"/>
      <point x="550" y="-119"/>
      <point x="554" y="-156" type="curve"/>
      <point x="593" y="-156" type="line"/>
      <point x="589" y="-100"/>
      <point x="553" y="-61"/>
      <point x="489" y="-61" type="curve" smooth="yes"/>
      <point x="422" y="-61"/>
      <point x="390" y="-98"/>
    </contour>
    <contour>
      <point x="670" y="-20" type="curve"/>
      <point x="707" y="-20" type="line"/>
      <point x="711" y="19"/>
      <point x="732" y="23"/>
      <point x="772" y="23" type="curve" smooth="yes"/>
      <point x="805" y="23"/>
      <point x="833" y="17"/>
      <point x="837" y="-20" type="curve"/>
      <point x="876" y="-20" type="line"/>
      <point x="872" y="36"/>
      <point x="836" y="75"/>
      <point x="772" y="75" type="curve" smooth="yes"/>
      <point x="705" y="75"/>
      <point x="673" y="38"/>
    </contour>
    <contour>
      <point x="763" y="224" type="curve"/>
      <point x="800" y="224" type="line"/>
      <point x="804" y="263"/>
      <point x="825" y="267"/>
      <point x="865" y="267" type="curve" smooth="yes"/>
      <point x="898" y="267"/>
      <point x="926" y="261"/>
      <point x="930" y="224" type="curve"/>
      <point x="969" y="224" type="line"/>
      <point x="965" y="280"/>
      <point x="929" y="319"/>
      <point x="865" y="319" type="curve" smooth="yes"/>
      <point x="798" y="319"/>
      <point x="766" y="282"/>
    </contour>
    <contour>
      <point x="670" y="462" type="curve"/>
      <point x="707" y="462" type="line"/>
      <point x="711" y="501"/>
      <point x="732" y="505"/>
      <point x="772" y="505" type="curve" smooth="yes"/>
      <point x="805" y="505"/>
      <point x="833" y="499"/>
      <point x="837" y="462" type="curve"/>
      <point x="876" y="462" type="line"/>
      <point x="872" y="518"/>
      <point x="836" y="557"/>
      <point x="772" y="557" type="curve" smooth="yes"/>
      <point x="705" y="557"/>
      <point x="673" y="520"/>
    </contour>
    <contour>
      <point x="387" y="601" type="curve"/>
      <point x="424" y="601" type="line"/>
      <point x="428" y="640"/>
      <point x="449" y="644"/>
      <point x="489" y="644" type="curve" smooth="yes"/>
      <point x="522" y="644"/>
      <point x="550" y="638"/>
      <point x="554" y="601" type="curve"/>
      <point x="593" y="601" type="line"/>
      <point x="589" y="657"/>
      <point x="553" y="696"/>
      <point x="489" y="696" type="curve" smooth="yes"/>
      <point x="422" y="696"/>
      <point x="390" y="659"/>
    </contour>
  </outline>
</glyph>
<glyph name="uni04C6" format="2">
  <advance width="685"/>
  <unicode hex="04C6"/>
  <anchor x="349" y="0" name="bottom"/>
  <anchor x="359" y="536" name="top"/>
  <outline>
    <contour>
      <point x="505" y="-210" type="line"/>
      <point x="615" y="-210" type="line"/>
      <point x="673" y="-3" type="line"/>
      <point x="673" y="10" type="line"/>
      <point x="663" y="10" type="line"/>
      <point x="663" y="0" type="line"/>
    </contour>
    <component base="afii10077"/>
  </outline>
</glyph>
<glyph name="uni051F" format="2">
  <advance width="662"/>
  <unicode hex="051F"/>
  <anchor x="331" y="0" name="bottom"/>
  <anchor x="331" y="536" name="top"/>
  <outline>
    <contour>
      <point x="536" y="335" type="line"/>
      <point x="541" y="343" type="line"/>
      <point x="348" y="469" type="line"/>
      <point x="343" y="461" type="line"/>
    </contour>
    <component base="afii10076"/>
  </outline>
</glyph>
<glyph name="uni1AB9" format="2">
  <unicode hex="1AB9"/>
  <anchor x="-460" y="82" name="_bottom"/>
  <anchor x="-460" y="-240" name="bottom"/>
  <outline>
    <contour>
      <point x="-499" y="-232" type="line"/>
      <point x="-399" y="34" type="line"/>
      <point x="-417" y="40" type="line"/>
      <point x="-517" y="-225" type="line"/>
    </contour>
  </outline>
</glyph>
<glyph name="uni1ABA" format="2">
  <unicode hex="1ABA"/>
  <anchor x="-471" y="82" name="_bottom"/>
  <anchor x="-471" y="-287" name="bottom"/>
  <outline>
    <contour>
      <point x="-499" y="-231" type="line"/>
      <point x="-399" y="35" type="line"/>
      <point x="-417" y="41" type="line"/>
      <point x="-517" y="-224" type="line"/>
    </contour>
    <contour>
      <point x="-503" y="-287" type="curve" smooth="yes"/>
      <point x="-467" y="-287"/>
      <point x="-442" y="-260"/>
      <point x="-442" y="-216" type="curve" smooth="yes"/>
      <point x="-442" y="-172"/>
      <point x="-467" y="-145"/>
      <point x="-503" y="-145" type="curve" smooth="yes"/>
      <point x="-539" y="-145"/>
      <point x="-564" y="-172"/>
      <point x="-564" y="-216" type="curve" smooth="yes"/>
      <point x="-564" y="-260"/>
      <point x="-539" y="-287"/>
    </contour>
  </outline>
</glyph>
<glyph name="uni1ABF" format="2">
  <unicode hex="1ABF"/>
  <anchor x="0" y="0" name="_bottom"/>
  <outline>
    <contour>
      <point x="-169" y="-86" type="curve" smooth="yes"/>
      <point x="-103" y="-278" type="line"/>
      <point x="-49" y="-278" type="line"/>
      <point x="-7" y="-148" type="line"/>
      <point x="47" y="-278" type="line"/>
      <point x="95" y="-278" type="line"/>
      <point x="152" y="-95" type="line" smooth="yes"/>
      <point x="159" y="-74"/>
      <point x="167" y="-68"/>
      <point x="178" y="-68" type="curve" smooth="yes"/>
      <point x="193" y="-68" type="line"/>
      <point x="193" y="-64" type="line"/>
      <point x="107" y="-64" type="line"/>
      <point x="107" y="-68" type="line"/>
      <point x="132" y="-68" type="line" smooth="yes"/>
      <point x="145" y="-68"/>
      <point x="151" y="-71"/>
      <point x="151" y="-80" type="curve" smooth="yes"/>
      <point x="151" y="-84"/>
      <point x="149" y="-91"/>
      <point x="147" y="-99" type="curve" smooth="yes"/>
      <point x="114" y="-204" type="line" smooth="yes"/>
      <point x="112" y="-210"/>
      <point x="109" y="-220"/>
      <point x="105" y="-234" type="curve"/>
      <point x="104" y="-234" type="line"/>
      <point x="98" y="-217"/>
      <point x="93" y="-207"/>
      <point x="87" y="-191" type="curve" smooth="yes"/>
      <point x="37" y="-66" type="line"/>
      <point x="16" y="-66" type="line"/>
      <point x="-35" y="-221" type="line"/>
      <point x="-37" y="-228"/>
      <point x="-39" y="-234"/>
      <point x="-41" y="-240" type="curve"/>
      <point x="-42" y="-240" type="line"/>
      <point x="-47" y="-221"/>
      <point x="-51" y="-204"/>
      <point x="-55" y="-191" type="curve" smooth="yes"/>
      <point x="-83" y="-95" type="line" smooth="yes"/>
      <point x="-84" y="-88"/>
      <point x="-87" y="-83"/>
      <point x="-87" y="-79" type="curve" smooth="yes"/>
      <point x="-87" y="-71"/>
      <point x="-81" y="-68"/>
      <point x="-69" y="-68" type="curve" smooth="yes"/>
      <point x="-45" y="-68" type="line"/>
      <point x="-45" y="-64" type="line"/>
      <point x="-194" y="-64" type="line"/>
      <point x="-194" y="-68" type="line"/>
      <point x="-193" y="-68" type="line" smooth="yes"/>
      <point x="-178" y="-68"/>
      <point x="-173" y="-72"/>
    </contour>
  </outline>
</glyph>
<glyph name="uni1AC0" format="2">
  <unicode hex="1AC0"/>
  <anchor x="0" y="0" name="_bottom"/>
  <outline>
    <contour>
      <point x="169" y="-256" type="curve" smooth="yes"/>
      <point x="103" y="-64" type="line"/>
      <point x="49" y="-64" type="line"/>
      <point x="7" y="-194" type="line"/>
      <point x="-47" y="-64" type="line"/>
      <point x="-95" y="-64" type="line"/>
      <point x="-152" y="-247" type="line" smooth="yes"/>
      <point x="-159" y="-268"/>
      <point x="-167" y="-274"/>
      <point x="-178" y="-274" type="curve" smooth="yes"/>
      <point x="-193" y="-274" type="line"/>
      <point x="-193" y="-278" type="line"/>
      <point x="-107" y="-278" type="line"/>
      <point x="-107" y="-274" type="line"/>
      <point x="-132" y="-274" type="line" smooth="yes"/>
      <point x="-145" y="-274"/>
      <point x="-151" y="-271"/>
      <point x="-151" y="-262" type="curve" smooth="yes"/>
      <point x="-151" y="-258"/>
      <point x="-149" y="-251"/>
      <point x="-147" y="-243" type="curve" smooth="yes"/>
      <point x="-114" y="-138" type="line" smooth="yes"/>
      <point x="-112" y="-132"/>
      <point x="-109" y="-122"/>
      <point x="-105" y="-108" type="curve"/>
      <point x="-104" y="-108" type="line"/>
      <point x="-98" y="-125"/>
      <point x="-93" y="-135"/>
      <point x="-87" y="-151" type="curve" smooth="yes"/>
      <point x="-37" y="-276" type="line"/>
      <point x="-16" y="-276" type="line"/>
      <point x="35" y="-121" type="line"/>
      <point x="37" y="-114"/>
      <point x="39" y="-108"/>
      <point x="41" y="-102" type="curve"/>
      <point x="42" y="-102" type="line"/>
      <point x="47" y="-121"/>
      <point x="51" y="-138"/>
      <point x="55" y="-151" type="curve" smooth="yes"/>
      <point x="83" y="-247" type="line" smooth="yes"/>
      <point x="84" y="-254"/>
      <point x="87" y="-259"/>
      <point x="87" y="-263" type="curve" smooth="yes"/>
      <point x="87" y="-271"/>
      <point x="81" y="-274"/>
      <point x="69" y="-274" type="curve" smooth="yes"/>
      <point x="45" y="-274" type="line"/>
      <point x="45" y="-278" type="line"/>
      <point x="194" y="-278" type="line"/>
      <point x="194" y="-274" type="line"/>
      <point x="193" y="-274" type="line" smooth="yes"/>
      <point x="178" y="-274"/>
      <point x="173" y="-270"/>
    </contour>
  </outline>
</glyph>
<glyph name="uni1D09" format="2">
  <advance width="370"/>
  <unicode hex="1D09"/>
  <anchor x="185" y="-218" name="bottom"/>
  <anchor x="185" y="536" name="top"/>
  <outline>
    <contour>
      <point x="14" y="0" type="line"/>
      <point x="356" y="0" type="line"/>
      <point x="356" y="10" type="line"/>
      <point x="322" y="10" type="line" smooth="yes"/>
      <point x="295" y="10"/>
      <point x="279" y="23"/>
      <point x="279" y="57" type="curve" smooth="yes"/>
      <point x="279" y="480" type="line" smooth="yes"/>
      <point x="279" y="515"/>
      <point x="295" y="526"/>
      <point x="322" y="526" type="curve" smooth="yes"/>
      <point x="356" y="526" type="line"/>
      <point x="356" y="536" type="line"/>
      <point x="14" y="536" type="line"/>
      <point x="14" y="526" type="line"/>
      <point x="49" y="526" type="line" smooth="yes"/>
      <point x="74" y="526"/>
      <point x="91" y="515"/>
      <point x="91" y="480" type="curve" smooth="yes"/>
      <point x="91" y="57" type="line" smooth="yes"/>
      <point x="91" y="23"/>
      <point x="74" y="10"/>
      <point x="49" y="10" type="curve" smooth="yes"/>
      <point x="14" y="10" type="line"/>
    </contour>
    <contour>
      <point x="185" y="-218" type="curve" smooth="yes"/>
      <point x="234" y="-218"/>
      <point x="278" y="-190"/>
      <point x="278" y="-138" type="curve" smooth="yes"/>
      <point x="278" y="-84"/>
      <point x="234" y="-59"/>
      <point x="185" y="-59" type="curve" smooth="yes"/>
      <point x="133" y="-59"/>
      <point x="94" y="-84"/>
      <point x="94" y="-138" type="curve" smooth="yes"/>
      <point x="94" y="-190"/>
      <point x="133" y="-218"/>
    </contour>
  </outline>
</glyph>
<glyph name="uni1D24" format="2">
  <advance width="529"/>
  <unicode hex="1D24"/>
  <anchor x="265" y="0" name="bottom"/>
  <anchor x="265" y="536" name="top"/>
  <outline>
    <contour>
      <point x="273" y="-7" type="curve" smooth="yes"/>
      <point x="431" y="-7"/>
      <point x="490" y="46"/>
      <point x="490" y="104" type="curve" smooth="yes"/>
      <point x="490" y="156"/>
      <point x="443" y="173"/>
      <point x="371" y="173" type="curve"/>
      <point x="371" y="50"/>
      <point x="337" y="3"/>
      <point x="250" y="3" type="curve" smooth="yes"/>
      <point x="182" y="3"/>
      <point x="145" y="31"/>
      <point x="145" y="82" type="curve" smooth="yes"/>
      <point x="145" y="138"/>
      <point x="188" y="170"/>
      <point x="265" y="175" type="curve"/>
      <point x="265" y="217" type="line"/>
      <point x="373" y="227"/>
      <point x="473" y="266"/>
      <point x="473" y="387" type="curve" smooth="yes"/>
      <point x="473" y="488"/>
      <point x="403" y="547"/>
      <point x="247" y="547" type="curve" smooth="yes"/>
      <point x="108" y="547"/>
      <point x="49" y="500"/>
      <point x="49" y="448" type="curve" smooth="yes"/>
      <point x="49" y="414"/>
      <point x="75" y="393"/>
      <point x="165" y="393" type="curve"/>
      <point x="165" y="496"/>
      <point x="191" y="537"/>
      <point x="258" y="537" type="curve" smooth="yes"/>
      <point x="315" y="537"/>
      <point x="350" y="508"/>
      <point x="350" y="460" type="curve" smooth="yes"/>
      <point x="350" y="419"/>
      <point x="324" y="396"/>
      <point x="262" y="382" type="curve"/>
      <point x="262" y="341" type="line"/>
      <point x="137" y="323"/>
      <point x="22" y="294"/>
      <point x="22" y="163" type="curve" smooth="yes"/>
      <point x="22" y="56"/>
      <point x="100" y="-7"/>
    </contour>
  </outline>
</glyph>
<glyph name="uni1D2F" format="2">
  <advance width="468"/>
  <unicode hex="1D2F"/>
  <anchor x="234.0" y="287.0" name="bottom"/>
  <anchor x="234.0" y="715.4" name="top"/>
  <anchor x="455.0" y="715.4" name="topright"/>
  <outline>
    <contour>
      <point x="12" y="508" type="line"/>
      <point x="450" y="508" type="line"/>
      <point x="450" y="514" type="line"/>
      <point x="12" y="514" type="line"/>
    </contour>
    <component base="B" xScale="0.65" yScale="0.6" yOffset="287"/>
  </outline>
</glyph>
<glyph name="uni1D7A" format="2">
  <advance width="1152"/>
  <unicode hex="1D7A"/>
  <anchor x="272" y="0" name="bottom_1"/>
  <anchor x="788" y="0" name="bottom_2"/>
  <anchor x="222" y="268" name="center_1"/>
  <anchor x="788" y="268" name="center_2"/>
  <anchor x="212" y="661" name="top_1"/>
  <anchor x="788" y="760" name="top_2"/>
  <anchor x="284" y="1030" name="topright_1"/>
  <anchor x="1073" y="760" name="topright_2"/>
  <outline>
    <contour>
      <point x="84" y="-110" type="line"/>
      <point x="98" y="-110" type="line"/>
      <point x="920" y="760" type="line"/>
      <point x="906" y="760" type="line"/>
    </contour>
    <component base="t"/>
    <component base="h" xOffset="442"/>
  </outline>
</glyph>
<glyph name="uni1D7C" format="2">
  <advance width="436"/>
  <unicode hex="1D7C"/>
  <anchor x="218" y="0" name="bottom"/>
  <anchor x="218" y="536" name="top"/>
  <outline>
    <contour>
      <point x="2" y="297" type="line"/>
      <point x="408" y="297" type="line"/>
      <point x="408" y="307" type="line"/>
      <point x="2" y="307" type="line"/>
    </contour>
    <component base="iotaLatin"/>
  </outline>
</glyph>
<glyph name="uni1D7F" format="2">
  <advance width="640"/>
  <unicode hex="1D7F"/>
  <anchor x="317" y="0" name="bottom"/>
  <anchor x="317" y="536" name="top"/>
  <outline>
    <contour>
      <point x="1" y="278" type="line"/>
      <point x="639" y="278" type="line"/>
      <point x="639" y="288" type="line"/>
      <point x="1" y="288" type="line"/>
    </contour>
    <component base="uni028A"/>
  </outline>
</glyph>
<glyph name="uni1D92" format="2">
  <advance width="598"/>
  <unicode hex="1D92"/>
  <anchor x="309" y="0" name="bottom"/>
  <anchor x="309" y="536" name="top"/>
  <anchor x="578" y="536" name="topright"/>
  <outline>
    <contour>
      <point x="635" y="-207" type="curve" smooth="yes"/>
      <point x="696" y="-207"/>
      <point x="735" y="-181"/>
      <point x="735" y="-138" type="curve" smooth="yes"/>
      <point x="735" y="-121"/>
      <point x="730" y="-106"/>
      <point x="721" y="-94" type="curve"/>
      <point x="695" y="-106"/>
      <point x="668" y="-112"/>
      <point x="634" y="-112" type="curve" smooth="yes"/>
      <point x="566" y="-112"/>
      <point x="542" y="-90"/>
      <point x="542" y="-29" type="curve" smooth="yes"/>
      <point x="542" y="112" type="line"/>
      <point x="532" y="112" type="line"/>
      <point x="532" y="-82" type="line" smooth="yes"/>
      <point x="532" y="-172"/>
      <point x="561" y="-207"/>
    </contour>
    <component base="e"/>
  </outline>
</glyph>
<glyph name="uni1D93" format="2">
  <advance width="569"/>
  <unicode hex="1D93"/>
  <anchor x="285" y="0" name="bottom"/>
  <anchor x="285" y="536" name="top"/>
  <outline>
    <contour>
      <point x="621" y="-207" type="curve" smooth="yes"/>
      <point x="682" y="-207"/>
      <point x="721" y="-181"/>
      <point x="721" y="-138" type="curve" smooth="yes"/>
      <point x="721" y="-121"/>
      <point x="716" y="-106"/>
      <point x="707" y="-94" type="curve"/>
      <point x="681" y="-106"/>
      <point x="654" y="-112"/>
      <point x="620" y="-112" type="curve" smooth="yes"/>
      <point x="552" y="-112"/>
      <point x="528" y="-90"/>
      <point x="528" y="-29" type="curve" smooth="yes"/>
      <point x="528" y="110" type="line"/>
      <point x="518" y="110" type="line"/>
      <point x="518" y="-82" type="line" smooth="yes"/>
      <point x="518" y="-172"/>
      <point x="547" y="-207"/>
    </contour>
    <component base="uni025B"/>
  </outline>
</glyph>
<glyph name="uni1FC1" format="2">
  <advance width="270"/>
  <unicode hex="1FC1"/>
  <anchor x="136" y="536" name="_top"/>
  <outline>
    <contour>
      <point x="-43" y="759" type="curve"/>
      <point x="-33" y="759" type="line"/>
      <point x="-27" y="796"/>
      <point x="-10" y="810"/>
      <point x="24" y="810" type="curve" smooth="yes"/>
      <point x="84" y="810"/>
      <point x="147" y="766"/>
      <point x="210" y="766" type="curve" smooth="yes"/>
      <point x="270" y="766"/>
      <point x="305" y="806"/>
      <point x="315" y="891" type="curve"/>
      <point x="305" y="891" type="line"/>
      <point x="296" y="854"/>
      <point x="280" y="838"/>
      <point x="247" y="838" type="curve" smooth="yes"/>
      <point x="190" y="838"/>
      <point x="130" y="884"/>
      <point x="67" y="884" type="curve" smooth="yes"/>
      <point x="5" y="884"/>
      <point x="-34" y="839"/>
    </contour>
    <contour>
      <point x="27" y="593" type="curve" smooth="yes"/>
      <point x="56" y="593"/>
      <point x="84" y="612"/>
      <point x="84" y="660" type="curve" smooth="yes"/>
      <point x="84" y="708"/>
      <point x="56" y="726"/>
      <point x="27" y="726" type="curve" smooth="yes"/>
      <point x="-1" y="726"/>
      <point x="-29" y="708"/>
      <point x="-29" y="660" type="curve" smooth="yes"/>
      <point x="-29" y="612"/>
      <point x="-1" y="593"/>
    </contour>
    <contour>
      <point x="244" y="593" type="curve" smooth="yes"/>
      <point x="271" y="593"/>
      <point x="300" y="612"/>
      <point x="300" y="660" type="curve" smooth="yes"/>
      <point x="300" y="708"/>
      <point x="271" y="726"/>
      <point x="244" y="726" type="curve" smooth="yes"/>
      <point x="214" y="726"/>
      <point x="186" y="708"/>
      <point x="186" y="660" type="curve" smooth="yes"/>
      <point x="186" y="612"/>
      <point x="214" y="593"/>
    </contour>
  </outline>
</glyph>
<glyph name="uni1FCD" format="2">
  <advance width="400"/>
  <unicode hex="1FCD"/>
  <anchor x="200" y="536" name="_top"/>
  <anchor x="200" y="724" name="top"/>
  <outline>
    <contour>
      <point x="45" y="545" type="line"/>
      <point x="156" y="558"/>
      <point x="187" y="603"/>
      <point x="187" y="654" type="curve" smooth="yes"/>
      <point x="187" y="702"/>
      <point x="155" y="724"/>
      <point x="112" y="724" type="curve" smooth="yes"/>
      <point x="59" y="724"/>
      <point x="45" y="698"/>
      <point x="45" y="674" type="curve" smooth="yes"/>
      <point x="45" y="622"/>
      <point x="122" y="644"/>
      <point x="122" y="600" type="curve" smooth="yes"/>
      <point x="122" y="576"/>
      <point x="94" y="563"/>
      <point x="45" y="555" type="curve"/>
    </contour>
    <contour>
      <point x="327" y="555" type="curve"/>
      <point x="342" y="555" type="line"/>
      <point x="342" y="570" type="line"/>
      <point x="330" y="613"/>
      <point x="317" y="669"/>
      <point x="310" y="714" type="curve"/>
      <point x="201" y="714" type="line"/>
      <point x="201" y="704" type="line"/>
      <point x="236" y="655"/>
      <point x="282" y="601"/>
    </contour>
  </outline>
</glyph>
<glyph name="uni1FEF" format="2">
  <unicode hex="1FEF"/>
  <anchor x="421" y="536" name="_top"/>
  <anchor x="421" y="760" name="top"/>
  <outline>
    <contour>
      <point x="486" y="578" type="curve"/>
      <point x="501" y="578" type="line"/>
      <point x="501" y="594" type="line"/>
      <point x="490" y="642"/>
      <point x="477" y="709"/>
      <point x="471" y="760" type="curve"/>
      <point x="343" y="760" type="line"/>
      <point x="343" y="749" type="line"/>
      <point x="383" y="692"/>
      <point x="432" y="632"/>
    </contour>
  </outline>
</glyph>
<glyph name="uni1FFD" format="2">
  <advance width="815"/>
  <unicode hex="1FFD"/>
  <anchor x="396" y="536" name="_top"/>
  <anchor x="396" y="760" name="top"/>
  <outline>
    <contour>
      <point x="314" y="578" type="line"/>
      <point x="329" y="578" type="line"/>
      <point x="383" y="632"/>
      <point x="432" y="692"/>
      <point x="472" y="749" type="curve"/>
      <point x="472" y="760" type="line"/>
      <point x="344" y="760" type="line"/>
      <point x="338" y="709"/>
      <point x="325" y="642"/>
      <point x="314" y="594" type="curve"/>
    </contour>
  </outline>
</glyph>
<glyph name="plussuperior" format="2">
  <advance width="405"/>
  <unicode hex="207A"/>
  <outline>
    <contour>
      <point x="192" y="330" type="line"/>
      <point x="212" y="330" type="line"/>
      <point x="212" y="472" type="line"/>
      <point x="355" y="472" type="line"/>
      <point x="355" y="492" type="line"/>
      <point x="212" y="492" type="line"/>
      <point x="212" y="633" type="line"/>
      <point x="192" y="633" type="line"/>
      <point x="192" y="492" type="line"/>
      <point x="50" y="492" type="line"/>
      <point x="50" y="472" type="line"/>
      <point x="192" y="472" type="line"/>
    </contour>
  </outline>
</glyph>
<glyph name="parenleftsuperior" format="2">
  <advance width="250"/>
  <unicode hex="207D"/>
  <outline>
    <contour>
      <point x="243" y="196" type="curve"/>
      <point x="243" y="206" type="line"/>
      <point x="149" y="269"/>
      <point x="135" y="335"/>
      <point x="135" y="491" type="curve" smooth="yes"/>
      <point x="135" y="644"/>
      <point x="149" y="714"/>
      <point x="243" y="778" type="curve"/>
      <point x="243" y="788" type="line"/>
      <point x="97" y="737"/>
      <point x="16" y="674"/>
      <point x="16" y="491" type="curve" smooth="yes"/>
      <point x="16" y="302"/>
      <point x="87" y="247"/>
    </contour>
  </outline>
</glyph>
<glyph name="parenrightsuperior" format="2">
  <advance width="250"/>
  <unicode hex="207E"/>
  <outline>
    <contour>
      <point x="7" y="196" type="line"/>
      <point x="153" y="247"/>
      <point x="234" y="310"/>
      <point x="234" y="493" type="curve" smooth="yes"/>
      <point x="234" y="682"/>
      <point x="163" y="737"/>
      <point x="7" y="788" type="curve"/>
      <point x="7" y="778" type="line"/>
      <point x="101" y="715"/>
      <point x="115" y="649"/>
      <point x="115" y="493" type="curve" smooth="yes"/>
      <point x="115" y="340"/>
      <point x="101" y="270"/>
      <point x="7" y="206" type="curve"/>
    </contour>
  </outline>
</glyph>
<glyph name="Euro" format="2">
  <advance width="559"/>
  <unicode hex="20AC"/>
  <outline>
    <contour>
      <point x="344" y="-10" type="curve" smooth="yes"/>
      <point x="496" y="-10"/>
      <point x="547" y="55"/>
      <point x="547" y="116" type="curve" smooth="yes"/>
      <point x="547" y="152"/>
      <point x="529" y="179"/>
      <point x="500" y="183" type="curve"/>
      <point x="498" y="42"/>
      <point x="448" y="2"/>
      <point x="382" y="2" type="curve" smooth="yes"/>
      <point x="294" y="2"/>
      <point x="255" y="70"/>
      <point x="247" y="278" type="curve"/>
      <point x="381" y="278" type="line"/>
      <point x="381" y="288" type="line"/>
      <point x="247" y="288" type="line"/>
      <point x="245" y="309"/>
      <point x="245" y="332"/>
      <point x="245" y="356" type="curve" smooth="yes"/>
      <point x="245" y="373"/>
      <point x="245" y="390"/>
      <point x="246" y="407" type="curve"/>
      <point x="421" y="407" type="line"/>
      <point x="421" y="417" type="line"/>
      <point x="246" y="417" type="line"/>
      <point x="250" y="645"/>
      <point x="275" y="712"/>
      <point x="335" y="712" type="curve" smooth="yes"/>
      <point x="385" y="712"/>
      <point x="400" y="665"/>
      <point x="400" y="517" type="curve"/>
      <point x="498" y="517"/>
      <point x="551" y="542"/>
      <point x="551" y="600" type="curve" smooth="yes"/>
      <point x="551" y="668"/>
      <point x="478" y="722"/>
      <point x="347" y="722" type="curve" smooth="yes"/>
      <point x="174" y="722"/>
      <point x="78" y="619"/>
      <point x="61" y="417" type="curve"/>
      <point x="17" y="417" type="line"/>
      <point x="17" y="407" type="line"/>
      <point x="60" y="407" type="line"/>
      <point x="59" y="389"/>
      <point x="58" y="370"/>
      <point x="58" y="350" type="curve" smooth="yes"/>
      <point x="58" y="328"/>
      <point x="59" y="308"/>
      <point x="60" y="288" type="curve"/>
      <point x="17" y="288" type="line"/>
      <point x="17" y="278" type="line"/>
      <point x="61" y="278" type="line"/>
      <point x="78" y="82"/>
      <point x="170" y="-10"/>
    </contour>
  </outline>
</glyph>
<glyph name="uni20AD" format="2">
  <advance width="781"/>
  <unicode hex="20AD"/>
  <anchor x="391" y="0" name="bottom"/>
  <anchor x="391" y="714" name="top"/>
  <anchor x="761" y="714" name="topright"/>
  <outline>
    <contour>
      <point x="7" y="367" type="line"/>
      <point x="703" y="367" type="line"/>
      <point x="703" y="377" type="line"/>
      <point x="7" y="377" type="line"/>
    </contour>
    <component base="K"/>
  </outline>
</glyph>
<glyph name="uni20AE" format="2">
  <advance width="682"/>
  <unicode hex="20AE"/>
  <anchor x="341" y="0" name="bottom"/>
  <anchor x="341" y="357" name="center"/>
  <anchor x="341" y="714" name="top"/>
  <anchor x="702" y="714" name="topright"/>
  <outline>
    <contour>
      <point x="121" y="300" type="line"/>
      <point x="566" y="503" type="line"/>
      <point x="562" y="512" type="line"/>
      <point x="117" y="309" type="line"/>
    </contour>
    <contour>
      <point x="121" y="144" type="line"/>
      <point x="566" y="347" type="line"/>
      <point x="562" y="356" type="line"/>
      <point x="117" y="153" type="line"/>
    </contour>
    <component base="T"/>
  </outline>
</glyph>
<glyph name="uni20B4" format="2">
  <advance width="605"/>
  <unicode hex="20B4"/>
  <anchor x="296" y="0" name="bottom"/>
  <anchor x="296" y="714" name="top"/>
  <anchor x="14" y="714" name="topright"/>
  <outline>
    <contour>
      <point x="315" y="-10" type="curve" smooth="yes"/>
      <point x="530" y="-10"/>
      <point x="575" y="78"/>
      <point x="575" y="129" type="curve" smooth="yes"/>
      <point x="575" y="218"/>
      <point x="509" y="241"/>
      <point x="442" y="241" type="curve"/>
      <point x="442" y="77"/>
      <point x="394" y="1"/>
      <point x="288" y="1" type="curve" smooth="yes"/>
      <point x="207" y="1"/>
      <point x="163" y="45"/>
      <point x="163" y="116" type="curve" smooth="yes"/>
      <point x="163" y="214"/>
      <point x="234" y="237"/>
      <point x="359" y="293" type="curve" smooth="yes"/>
      <point x="456" y="337"/>
      <point x="553" y="385"/>
      <point x="553" y="518" type="curve" smooth="yes"/>
      <point x="553" y="646"/>
      <point x="436" y="724"/>
      <point x="284" y="724" type="curve" smooth="yes"/>
      <point x="122" y="724"/>
      <point x="52" y="659"/>
      <point x="52" y="598" type="curve" smooth="yes"/>
      <point x="52" y="548"/>
      <point x="90" y="509"/>
      <point x="197" y="509" type="curve"/>
      <point x="197" y="651"/>
      <point x="233" y="713"/>
      <point x="311" y="713" type="curve" smooth="yes"/>
      <point x="372" y="713"/>
      <point x="416" y="676"/>
      <point x="416" y="605" type="curve" smooth="yes"/>
      <point x="416" y="526"/>
      <point x="362" y="501"/>
      <point x="219" y="438" type="curve" smooth="yes"/>
      <point x="111" y="390"/>
      <point x="24" y="345"/>
      <point x="24" y="212" type="curve" smooth="yes"/>
      <point x="24" y="82"/>
      <point x="137" y="-10"/>
    </contour>
    <contour>
      <point x="-20" y="302" type="line"/>
      <point x="607" y="302" type="line"/>
      <point x="607" y="312" type="line"/>
      <point x="-20" y="312" type="line"/>
    </contour>
    <contour>
      <point x="-20" y="428" type="line"/>
      <point x="607" y="428" type="line"/>
      <point x="607" y="438" type="line"/>
      <point x="-20" y="438" type="line"/>
    </contour>
  </outline>
</glyph>
<glyph name="response" format="2">
  <advance width="753"/>
  <unicode hex="211F"/>
  <anchor x="377" y="0" name="bottom"/>
  <anchor x="377" y="714" name="top"/>
  <anchor x="733" y="714" name="topright"/>
  <outline>
    <contour>
      <point x="178" y="-128" type="line"/>
      <point x="189" y="-128" type="line"/>
      <point x="557" y="806" type="line"/>
      <point x="315" y="900" type="line"/>
      <point x="311" y="891" type="line"/>
      <point x="544" y="801" type="line"/>
    </contour>
    <component base="R"/>
  </outline>
</glyph>
<glyph name="versicle" format="2">
  <advance width="715"/>
  <unicode hex="2123"/>
  <anchor x="368" y="0" name="bottom"/>
  <anchor x="408" y="714" name="top"/>
  <anchor x="735" y="714" name="topright"/>
  <outline>
    <contour>
      <point x="178" y="-128" type="line"/>
      <point x="189" y="-128" type="line"/>
      <point x="557" y="806" type="line"/>
      <point x="315" y="900" type="line"/>
      <point x="311" y="891" type="line"/>
      <point x="544" y="801" type="line"/>
    </contour>
    <component base="V"/>
  </outline>
</glyph>
<glyph name="uni2C60" format="2">
  <advance width="677"/>
  <unicode hex="2C60"/>
  <anchor x="339" y="0" name="bottom"/>
  <anchor x="339" y="714" name="top"/>
  <anchor x="339" y="357" name="center"/>
  <anchor x="657" y="714" name="topright"/>
  <outline>
    <contour>
      <point x="6" y="429" type="line"/>
      <point x="469" y="429" type="line"/>
      <point x="469" y="439" type="line"/>
      <point x="6" y="439" type="line"/>
    </contour>
    <contour>
      <point x="6" y="303" type="line"/>
      <point x="469" y="303" type="line"/>
      <point x="469" y="313" type="line"/>
      <point x="6" y="313" type="line"/>
    </contour>
    <component base="L"/>
  </outline>
</glyph>
<glyph name="uni2C6C" format="2">
  <advance width="542"/>
  <unicode hex="2C6C"/>
  <anchor x="271" y="-200" name="bottom"/>
  <anchor x="271" y="536" name="top"/>
  <outline>
    <contour>
      <point x="499" y="-200" type="line"/>
      <point x="509" y="-200" type="line"/>
      <point x="509" y="10" type="line"/>
      <point x="186" y="10" type="line"/>
      <point x="516" y="526" type="line"/>
      <point x="516" y="536" type="line"/>
      <point x="48" y="536" type="line"/>
      <point x="35" y="359" type="line"/>
      <point x="45" y="359" type="line"/>
      <point x="48" y="386" type="line" smooth="yes"/>
      <point x="59" y="492"/>
      <point x="95" y="526"/>
      <point x="198" y="526" type="curve" smooth="yes"/>
      <point x="330" y="526" type="line"/>
      <point x="0" y="10" type="line"/>
      <point x="0" y="0" type="line"/>
      <point x="319" y="0" type="line" smooth="yes"/>
      <point x="447" y="0"/>
      <point x="489" y="-40"/>
      <point x="497" y="-168" type="curve" smooth="yes"/>
    </contour>
  </outline>
</glyph>
<glyph name="uni2E44" format="2">
  <advance width="328"/>
  <unicode hex="2E44"/>
  <outline>
    <contour>
      <point x="51" y="531" type="line"/>
      <point x="288" y="654" type="line"/>
      <point x="179" y="772" type="line"/>
      <point x="40" y="543" type="line"/>
    </contour>
    <contour>
      <point x="51" y="-89" type="line"/>
      <point x="288" y="34" type="line"/>
      <point x="179" y="152" type="line"/>
      <point x="40" y="-77" type="line"/>
    </contour>
  </outline>
</glyph>
<glyph name="uniA745" format="2">
  <advance width="674"/>
  <unicode hex="A745"/>
  <anchor x="337" y="0" name="bottom"/>
  <anchor x="337" y="760" name="top"/>
  <anchor x="504" y="920" name="topright"/>
  <outline>
    <contour>
      <point x="325" y="102" type="line"/>
      <point x="587" y="289" type="line"/>
      <point x="581" y="297" type="line"/>
      <point x="319" y="110" type="line"/>
    </contour>
    <contour>
      <point x="16" y="602" type="line"/>
      <point x="408" y="602" type="line"/>
      <point x="408" y="612" type="line"/>
      <point x="16" y="612" type="line"/>
    </contour>
    <component base="k"/>
  </outline>
</glyph>
<glyph name="uniA758" format="2">
  <advance width="999"/>
  <unicode hex="A758"/>
  <anchor x="410" y="-240" name="bottom"/>
  <anchor x="410" y="714" name="top"/>
  <anchor x="800" y="714" name="topright"/>
  <outline>
    <contour>
      <point x="570" y="-203" type="line"/>
      <point x="788" y="31" type="line" smooth="yes"/>
      <point x="920" y="172"/>
      <point x="987" y="258"/>
      <point x="987" y="354" type="curve" smooth="yes"/>
      <point x="987" y="420"/>
      <point x="956" y="473"/>
      <point x="886" y="473" type="curve" smooth="yes"/>
      <point x="833" y="473"/>
      <point x="806" y="441"/>
      <point x="806" y="407" type="curve"/>
      <point x="845" y="403"/>
      <point x="885" y="368"/>
      <point x="885" y="274" type="curve" smooth="yes"/>
      <point x="885" y="234"/>
      <point x="878" y="142"/>
      <point x="787" y="44" type="curve" smooth="yes"/>
      <point x="562" y="-197" type="line"/>
    </contour>
    <component base="Q"/>
  </outline>
</glyph>
<glyph name="uniA75E" format="2">
  <advance width="715"/>
  <unicode hex="A75E"/>
  <anchor x="358" y="0" name="bottom"/>
  <anchor x="358" y="714" name="top"/>
  <anchor x="735" y="714" name="topright"/>
  <outline>
    <contour>
      <point x="151" y="0" type="line"/>
      <point x="162" y="0" type="line"/>
      <point x="425" y="714" type="line"/>
      <point x="414" y="714" type="line"/>
    </contour>
    <component base="V"/>
  </outline>
</glyph>
<glyph name="uniA765" format="2">
  <advance width="668"/>
  <unicode hex="A765"/>
  <anchor x="334" y="-240" name="bottom"/>
  <anchor x="334" y="760" name="top"/>
  <outline>
    <contour>
      <point x="28" y="479" type="line"/>
      <point x="446" y="720" type="line"/>
      <point x="446" y="730" type="line"/>
      <point x="28" y="489" type="line"/>
    </contour>
    <component base="thorn"/>
  </outline>
</glyph>
<glyph name="uniA799" format="2">
  <advance width="435"/>
  <unicode hex="A799"/>
  <anchor x="218" y="0" name="bottom"/>
  <anchor x="293" y="768" name="top"/>
  <anchor x="515" y="768" name="topright"/>
  <outline>
    <contour>
      <point x="20" y="265" type="line"/>
      <point x="432" y="265" type="line"/>
      <point x="432" y="275" type="line"/>
      <point x="20" y="275" type="line"/>
    </contour>
    <component base="f"/>
  </outline>
</glyph>
<glyph name="uniA7A0" format="2">
  <advance width="810"/>
  <unicode hex="A7A0"/>
  <anchor x="435" y="0" name="bottom"/>
  <anchor x="435" y="714" name="top"/>
  <anchor x="790" y="714" name="topright"/>
  <outline>
    <contour>
      <point x="1" y="253" type="line"/>
      <point x="775" y="424" type="line"/>
      <point x="775" y="434" type="line"/>
      <point x="1" y="263" type="line"/>
    </contour>
    <component base="G"/>
  </outline>
</glyph>
<glyph name="uniA7A3" format="2">
  <advance width="674"/>
  <unicode hex="A7A3"/>
  <anchor x="337" y="760" name="top"/>
  <anchor x="337" y="0" name="bottom"/>
  <anchor x="654" y="760" name="topright"/>
  <outline>
    <contour>
      <point x="29" y="115" type="line"/>
      <point x="624" y="211" type="line"/>
      <point x="623" y="221" type="line"/>
      <point x="28" y="125" type="line"/>
    </contour>
    <component base="k"/>
  </outline>
</glyph>
<glyph name="uniA7A4" format="2">
  <advance width="806"/>
  <unicode hex="A7A4"/>
  <anchor x="403" y="0" name="bottom"/>
  <anchor x="403" y="714" name="top"/>
  <anchor x="786" y="714" name="topright"/>
  <outline>
    <contour>
      <point x="21" y="288" type="line"/>
      <point x="798" y="486" type="line"/>
      <point x="798" y="496" type="line"/>
      <point x="21" y="298" type="line"/>
    </contour>
    <component base="N"/>
  </outline>
</glyph>
<glyph name="uniA7A7" format="2">
  <advance width="561"/>
  <unicode hex="A7A7"/>
  <anchor x="201" y="0" name="bottom"/>
  <anchor x="281" y="536" name="top"/>
  <anchor x="571" y="536" name="topright"/>
  <outline>
    <contour>
      <point x="4" y="194" type="line"/>
      <point x="409" y="269" type="line"/>
      <point x="409" y="279" type="line"/>
      <point x="4" y="204" type="line"/>
    </contour>
    <component base="r"/>
  </outline>
</glyph>
<glyph name="uniA7AE" format="2">
  <advance width="582"/>
  <unicode hex="A7AE"/>
  <outline>
    <contour>
      <point x="17" y="0" type="line"/>
      <point x="565" y="0" type="line"/>
      <point x="572" y="198" type="line"/>
      <point x="562" y="198" type="line"/>
      <point x="560" y="174" type="line" smooth="yes"/>
      <point x="550" y="49"/>
      <point x="516" y="10"/>
      <point x="420" y="10" type="curve" smooth="yes"/>
      <point x="388" y="10" type="line"/>
      <point x="388" y="526" type="line"/>
      <point x="420" y="526" type="line" smooth="yes"/>
      <point x="518" y="526"/>
      <point x="551" y="487"/>
      <point x="560" y="362" type="curve" smooth="yes"/>
      <point x="562" y="338" type="line"/>
      <point x="572" y="338" type="line"/>
      <point x="565" y="536" type="line"/>
      <point x="17" y="536" type="line"/>
      <point x="10" y="338" type="line"/>
      <point x="20" y="338" type="line"/>
      <point x="22" y="362" type="line" smooth="yes"/>
      <point x="32" y="487"/>
      <point x="66" y="526"/>
      <point x="162" y="526" type="curve" smooth="yes"/>
      <point x="193" y="526" type="line"/>
      <point x="193" y="10" type="line"/>
      <point x="162" y="10" type="line" smooth="yes"/>
      <point x="64" y="10"/>
      <point x="31" y="49"/>
      <point x="22" y="174" type="curve" smooth="yes"/>
      <point x="20" y="198" type="line"/>
      <point x="10" y="198" type="line"/>
    </contour>
  </outline>
</glyph>
<glyph name="uniA7B9" format="2">
  <advance width="691"/>
  <unicode hex="A7B9"/>
  <anchor x="346" y="0" name="bottom"/>
  <anchor x="346" y="536" name="top"/>
  <anchor x="661" y="536" name="topright"/>
  <outline>
    <contour>
      <point x="87" y="-15" type="line"/>
      <point x="98" y="-15" type="line"/>
      <point x="614" y="552" type="line"/>
      <point x="603" y="552" type="line"/>
    </contour>
    <component base="u"/>
  </outline>
</glyph>
<glyph name="uniA7C4" format="2">
  <advance width="708"/>
  <unicode hex="A7C4"/>
  <anchor x="445" y="-10" name="bottom"/>
  <anchor x="404" y="714" name="top"/>
  <anchor x="688" y="714" name="topright"/>
  <outline>
    <contour>
      <point x="665" y="-15" type="curve" smooth="yes"/>
      <point x="665" y="133" type="line"/>
      <point x="655" y="123" type="line"/>
      <point x="655" y="-9" type="line" smooth="yes"/>
      <point x="655" y="-125"/>
      <point x="619" y="-156"/>
      <point x="569" y="-156" type="curve" smooth="yes"/>
      <point x="491" y="-156"/>
      <point x="523" y="-58"/>
      <point x="434" y="-58" type="curve" smooth="yes"/>
      <point x="380" y="-58"/>
      <point x="350" y="-88"/>
      <point x="350" y="-133" type="curve" smooth="yes"/>
      <point x="350" y="-189"/>
      <point x="397" y="-219"/>
      <point x="491" y="-219" type="curve" smooth="yes"/>
      <point x="601" y="-219"/>
      <point x="665" y="-167"/>
    </contour>
    <component base="C"/>
  </outline>
</glyph>
<glyph name="uniA7C5" format="2">
  <advance width="605"/>
  <unicode hex="A7C5"/>
  <anchor x="315" y="-10" name="bottom"/>
  <anchor x="303" y="714" name="top"/>
  <anchor x="585" y="714" name="topright"/>
  <outline>
    <contour>
      <point x="24" y="-15" type="line"/>
      <point x="24" y="-167"/>
      <point x="88" y="-219"/>
      <point x="198" y="-219" type="curve" smooth="yes"/>
      <point x="292" y="-219"/>
      <point x="339" y="-189"/>
      <point x="339" y="-135" type="curve" smooth="yes"/>
      <point x="339" y="-88"/>
      <point x="309" y="-58"/>
      <point x="255" y="-58" type="curve" smooth="yes"/>
      <point x="166" y="-58"/>
      <point x="198" y="-156"/>
      <point x="120" y="-156" type="curve" smooth="yes"/>
      <point x="70" y="-156"/>
      <point x="34" y="-125"/>
      <point x="34" y="-9" type="curve" smooth="yes"/>
      <point x="34" y="123" type="line"/>
      <point x="24" y="133" type="line"/>
    </contour>
    <component base="S"/>
  </outline>
</glyph>
<glyph name="uniA7C6" format="2">
  <advance width="721"/>
  <unicode hex="A7C6"/>
  <anchor x="361" y="0" name="bottom"/>
  <anchor x="361" y="714" name="top"/>
  <anchor x="701" y="714" name="topright"/>
  <outline>
    <contour>
      <point x="667" y="-15" type="curve" smooth="yes"/>
      <point x="667" y="43" type="line"/>
      <point x="657" y="33" type="line"/>
      <point x="657" y="-9" type="line" smooth="yes"/>
      <point x="657" y="-125"/>
      <point x="621" y="-156"/>
      <point x="571" y="-156" type="curve" smooth="yes"/>
      <point x="493" y="-156"/>
      <point x="525" y="-58"/>
      <point x="436" y="-58" type="curve" smooth="yes"/>
      <point x="382" y="-58"/>
      <point x="352" y="-88"/>
      <point x="352" y="-131" type="curve" smooth="yes"/>
      <point x="352" y="-189"/>
      <point x="399" y="-219"/>
      <point x="493" y="-219" type="curve" smooth="yes"/>
      <point x="603" y="-219"/>
      <point x="667" y="-167"/>
    </contour>
    <component base="Z"/>
  </outline>
</glyph>
<glyph name="uniA7C8" format="2">
  <advance width="675"/>
  <unicode hex="A7C8"/>
  <anchor x="338" y="0" name="bottom"/>
  <anchor x="338" y="268" name="center"/>
  <anchor x="338" y="760" name="top"/>
  <anchor x="635" y="760" name="topright"/>
  <outline>
    <contour>
      <point x="160" y="266" type="line"/>
      <point x="447" y="266" type="line"/>
      <point x="447" y="276" type="line"/>
      <point x="160" y="276" type="line"/>
    </contour>
    <component base="d"/>
  </outline>
</glyph>
<glyph name="uniA7C9" format="2">
  <advance width="605"/>
  <unicode hex="A7C9"/>
  <anchor x="315" y="-10" name="bottom"/>
  <anchor x="303" y="714" name="top"/>
  <anchor x="585" y="714" name="topright"/>
  <outline>
    <contour>
      <point x="25" y="365" type="line"/>
      <point x="588" y="365" type="line"/>
      <point x="588" y="375" type="line"/>
      <point x="25" y="375" type="line"/>
    </contour>
    <component base="S"/>
  </outline>
</glyph>
<glyph name="uniA7CA" format="2">
  <advance width="502"/>
  <unicode hex="A7CA"/>
  <anchor x="251" y="0" name="bottom"/>
  <anchor x="251" y="536" name="top"/>
  <anchor x="482" y="536" name="topright"/>
  <outline>
    <contour>
      <point x="5" y="273" type="line"/>
      <point x="492" y="273" type="line"/>
      <point x="492" y="283" type="line"/>
      <point x="5" y="283" type="line"/>
    </contour>
    <component base="s"/>
  </outline>
</glyph>
<glyph name="uniA7FF" format="2">
  <advance width="989"/>
  <unicode hex="A7FF"/>
  <outline>
    <contour>
      <point x="7" y="0" type="line"/>
      <point x="201" y="0" type="line"/>
      <point x="201" y="10" type="line"/>
      <point x="167" y="10" type="line" smooth="yes"/>
      <point x="123" y="10"/>
      <point x="101" y="25"/>
      <point x="101" y="59" type="curve" smooth="yes"/>
      <point x="101" y="70"/>
      <point x="105" y="92"/>
      <point x="110" y="109" type="curve" smooth="yes"/>
      <point x="163" y="297" type="line" smooth="yes"/>
      <point x="176" y="342"/>
      <point x="188" y="388"/>
      <point x="200" y="434" type="curve"/>
      <point x="202" y="434" type="line"/>
      <point x="215" y="389"/>
      <point x="230" y="342"/>
      <point x="244" y="300" type="curve" smooth="yes"/>
      <point x="342" y="0" type="line"/>
      <point x="416" y="0" type="line"/>
      <point x="533" y="427" type="line"/>
      <point x="656" y="0" type="line"/>
      <point x="767" y="0" type="line"/>
      <point x="893" y="447" type="line" smooth="yes"/>
      <point x="911" y="512"/>
      <point x="930" y="526"/>
      <point x="966" y="526" type="curve" smooth="yes"/>
      <point x="996" y="526" type="line"/>
      <point x="996" y="536" type="line"/>
      <point x="786" y="536" type="line"/>
      <point x="786" y="526" type="line"/>
      <point x="820" y="526" type="line" smooth="yes"/>
      <point x="864" y="526"/>
      <point x="886" y="511"/>
      <point x="886" y="477" type="curve" smooth="yes"/>
      <point x="886" y="466"/>
      <point x="882" y="444"/>
      <point x="877" y="427" type="curve" smooth="yes"/>
      <point x="824" y="239" type="line" smooth="yes"/>
      <point x="812" y="196"/>
      <point x="800" y="152"/>
      <point x="788" y="107" type="curve"/>
      <point x="786" y="107" type="line"/>
      <point x="775" y="152"/>
      <point x="764" y="192"/>
      <point x="753" y="232" type="curve" smooth="yes"/>
      <point x="667" y="536" type="line"/>
      <point x="554" y="536" type="line"/>
      <point x="479" y="268" type="line" smooth="yes"/>
      <point x="469" y="232"/>
      <point x="460" y="198"/>
      <point x="454" y="172" type="curve"/>
      <point x="452" y="172" type="line"/>
      <point x="442" y="208"/>
      <point x="436" y="226"/>
      <point x="424" y="262" type="curve" smooth="yes"/>
      <point x="335" y="536" type="line"/>
      <point x="220" y="536" type="line"/>
      <point x="94" y="89" type="line" smooth="yes"/>
      <point x="76" y="24"/>
      <point x="57" y="10"/>
      <point x="21" y="10" type="curve" smooth="yes"/>
      <point x="7" y="10" type="line"/>
    </contour>
  </outline>
</glyph>
<glyph name="uniAB30" format="2">
  <advance width="675"/>
  <unicode hex="AB30"/>
  <anchor x="338" y="0" name="bottom"/>
  <anchor x="338" y="536" name="top"/>
  <outline>
    <contour>
      <point x="-27" y="279" type="line"/>
      <point x="655" y="279" type="line"/>
      <point x="655" y="289" type="line"/>
      <point x="-27" y="289" type="line"/>
    </contour>
    <component base="uni0251"/>
  </outline>
</glyph>
<glyph name="uniAB3F" format="2">
  <advance width="553"/>
  <unicode hex="AB3F"/>
  <anchor x="262" y="541" name="bottom"/>
  <anchor x="262" y="5" name="top"/>
  <anchor x="26" y="5" name="topright"/>
  <outline>
    <contour>
      <point x="52" y="-53" type="line"/>
      <point x="63" y="-53" type="line"/>
      <point x="445" y="609" type="line"/>
      <point x="434" y="609" type="line"/>
    </contour>
    <component base="c" xScale="-1" yScale="-1" xOffset="559" yOffset="541"/>
  </outline>
</glyph>
<glyph name="uniAB41" format="2">
  <advance width="957"/>
  <unicode hex="AB41"/>
  <anchor x="483" y="541" name="bottom"/>
  <anchor x="483" y="5" name="top"/>
  <outline>
    <contour>
      <point x="450" y="-53" type="line"/>
      <point x="461" y="-53" type="line"/>
      <point x="843" y="609" type="line"/>
      <point x="832" y="609" type="line"/>
    </contour>
    <component base="oe" xScale="-1" yScale="-1" xOffset="962" yOffset="541"/>
  </outline>
</glyph>
<glyph name="uniAB42" format="2">
  <advance width="961"/>
  <unicode hex="AB42"/>
  <anchor x="483" y="541" name="bottom"/>
  <anchor x="483" y="5" name="top"/>
  <outline>
    <contour>
      <point x="509" y="269" type="line"/>
      <point x="771" y="269" type="line"/>
      <point x="771" y="279" type="line"/>
      <point x="509" y="279" type="line"/>
    </contour>
    <component base="oe" xScale="-1" yScale="-1" xOffset="962" yOffset="541"/>
  </outline>
</glyph>
<glyph name="uniAB60" format="2">
  <advance width="997"/>
  <unicode hex="AB60"/>
  <outline>
    <contour>
      <point x="396" y="0" type="line"/>
      <point x="751" y="0" type="line" smooth="yes"/>
      <point x="912" y="0"/>
      <point x="989" y="68"/>
      <point x="989" y="160" type="curve" smooth="yes"/>
      <point x="989" y="286"/>
      <point x="883" y="310"/>
      <point x="760" y="310" type="curve" smooth="yes"/>
      <point x="665" y="310" type="line"/>
      <point x="665" y="462" type="line" smooth="yes"/>
      <point x="665" y="500"/>
      <point x="683" y="526"/>
      <point x="737" y="526" type="curve" smooth="yes"/>
      <point x="750" y="526" type="line"/>
      <point x="750" y="536" type="line"/>
      <point x="396" y="536" type="line"/>
      <point x="396" y="526" type="line"/>
      <point x="406" y="526" type="line" smooth="yes"/>
      <point x="455" y="526"/>
      <point x="470" y="500"/>
      <point x="470" y="453" type="curve" smooth="yes"/>
      <point x="470" y="72" type="line" smooth="yes"/>
      <point x="470" y="32"/>
      <point x="458" y="10"/>
      <point x="406" y="10" type="curve" smooth="yes"/>
      <point x="396" y="10" type="line"/>
    </contour>
    <contour>
      <point x="14" y="0" type="line"/>
      <point x="355" y="0" type="line"/>
      <point x="355" y="10" type="line"/>
      <point x="344" y="10" type="line" smooth="yes"/>
      <point x="306" y="10"/>
      <point x="281" y="28"/>
      <point x="281" y="74" type="curve" smooth="yes"/>
      <point x="281" y="462" type="line" smooth="yes"/>
      <point x="281" y="511"/>
      <point x="306" y="526"/>
      <point x="344" y="526" type="curve" smooth="yes"/>
      <point x="355" y="526" type="line"/>
      <point x="355" y="536" type="line"/>
      <point x="14" y="536" type="line"/>
      <point x="14" y="526" type="line"/>
      <point x="25" y="526" type="line" smooth="yes"/>
      <point x="63" y="526"/>
      <point x="86" y="512"/>
      <point x="86" y="463" type="curve" smooth="yes"/>
      <point x="86" y="74" type="line" smooth="yes"/>
      <point x="86" y="23"/>
      <point x="64" y="10"/>
      <point x="25" y="10" type="curve" smooth="yes"/>
      <point x="14" y="10" type="line"/>
    </contour>
    <contour>
      <point x="665" y="10" type="line"/>
      <point x="665" y="300" type="line"/>
      <point x="697" y="300" type="line" smooth="yes"/>
      <point x="763" y="300"/>
      <point x="789" y="262"/>
      <point x="789" y="165" type="curve" smooth="yes"/>
      <point x="789" y="53"/>
      <point x="764" y="10"/>
      <point x="699" y="10" type="curve" smooth="yes"/>
    </contour>
  </outline>
</glyph>
<glyph name="uniAB69" format="2">
  <advance width="557"/>
  <unicode hex="AB69"/>
  <anchor x="277" y="287" name="bottom"/>
  <anchor x="-6" y="287" name="bottomleft"/>
  <anchor x="277" y="609" name="top"/>
  <outline>
    <contour>
      <point x="522" y="320" type="curve" smooth="yes"/>
      <point x="427" y="609" type="line"/>
      <point x="349" y="609" type="line"/>
      <point x="288" y="414" type="line"/>
      <point x="211" y="609" type="line"/>
      <point x="141" y="609" type="line"/>
      <point x="58" y="335" type="line" smooth="yes"/>
      <point x="48" y="302"/>
      <point x="37" y="293"/>
      <point x="21" y="293" type="curve" smooth="yes"/>
      <point x="-1" y="293" type="line"/>
      <point x="-1" y="287" type="line"/>
      <point x="124" y="287" type="line"/>
      <point x="124" y="293" type="line"/>
      <point x="87" y="293" type="line" smooth="yes"/>
      <point x="69" y="293"/>
      <point x="61" y="298"/>
      <point x="61" y="312" type="curve" smooth="yes"/>
      <point x="61" y="319"/>
      <point x="63" y="328"/>
      <point x="67" y="340" type="curve" smooth="yes"/>
      <point x="114" y="498" type="line" smooth="yes"/>
      <point x="117" y="507"/>
      <point x="121" y="522"/>
      <point x="127" y="543" type="curve"/>
      <point x="128" y="543" type="line"/>
      <point x="137" y="518"/>
      <point x="143" y="502"/>
      <point x="152" y="479" type="curve" smooth="yes"/>
      <point x="224" y="291" type="line"/>
      <point x="256" y="291" type="line"/>
      <point x="328" y="524" type="line"/>
      <point x="332" y="533"/>
      <point x="334" y="543"/>
      <point x="337" y="553" type="curve"/>
      <point x="338" y="553" type="line"/>
      <point x="345" y="524"/>
      <point x="351" y="499"/>
      <point x="357" y="479" type="curve" smooth="yes"/>
      <point x="397" y="335" type="line" smooth="yes"/>
      <point x="400" y="325"/>
      <point x="403" y="316"/>
      <point x="403" y="310" type="curve" smooth="yes"/>
      <point x="403" y="298"/>
      <point x="395" y="293"/>
      <point x="377" y="293" type="curve" smooth="yes"/>
      <point x="343" y="293" type="line"/>
      <point x="343" y="287" type="line"/>
      <point x="558" y="287" type="line"/>
      <point x="558" y="293" type="line"/>
      <point x="557" y="293" type="line" smooth="yes"/>
      <point x="536" y="293"/>
      <point x="528" y="301"/>
    </contour>
  </outline>
</glyph>
<glyph name="uniFE20" format="2">
  <unicode hex="FE20"/>
  <anchor x="2" y="536" name="_top"/>
  <outline>
    <contour>
      <point x="-386" y="593" type="curve"/>
      <point x="-376" y="593" type="line"/>
      <point x="-301" y="684"/>
      <point x="-225" y="714"/>
      <point x="2" y="714" type="curve"/>
      <point x="2" y="807" type="line"/>
      <point x="-10" y="807" type="line" smooth="yes"/>
      <point x="-185" y="807"/>
      <point x="-331" y="731"/>
    </contour>
  </outline>
</glyph>
<glyph name="uniFE22" format="2">
  <unicode hex="FE22"/>
  <anchor x="3" y="536" name="_top"/>
  <outline>
    <contour>
      <point x="-384" y="591" type="curve"/>
      <point x="-374" y="591" type="line"/>
      <point x="-346" y="652"/>
      <point x="-297" y="672"/>
      <point x="-235" y="672" type="curve" smooth="yes"/>
      <point x="-167" y="672"/>
      <point x="-84" y="648"/>
      <point x="3" y="626" type="curve"/>
      <point x="3" y="718" type="line"/>
      <point x="-57" y="733"/>
      <point x="-126" y="748"/>
      <point x="-188" y="748" type="curve" smooth="yes"/>
      <point x="-322" y="748"/>
      <point x="-364" y="667"/>
    </contour>
  </outline>
</glyph>
<glyph name="uniFE23" format="2">
  <unicode hex="FE23"/>
  <anchor x="-3" y="536" name="_top"/>
  <outline>
    <contour>
      <point x="188" y="597" type="curve" smooth="yes"/>
      <point x="322" y="597"/>
      <point x="364" y="678"/>
      <point x="384" y="754" type="curve"/>
      <point x="374" y="754" type="line"/>
      <point x="346" y="693"/>
      <point x="297" y="673"/>
      <point x="235" y="673" type="curve" smooth="yes"/>
      <point x="167" y="673"/>
      <point x="84" y="697"/>
      <point x="-3" y="719" type="curve"/>
      <point x="-3" y="627" type="line"/>
      <point x="57" y="612"/>
      <point x="126" y="597"/>
    </contour>
  </outline>
</glyph>
<glyph name="combiningmacronrighthalf" format="2">
  <unicode hex="FE25"/>
  <anchor x="0" y="536" name="_top"/>
  <outline>
    <contour>
      <point x="-398" y="700" type="line"/>
      <point x="0" y="700" type="line"/>
      <point x="0" y="720" type="line"/>
      <point x="-398" y="720" type="line"/>
    </contour>
  </outline>
</glyph>
<glyph name="uniFE28" format="2">
  <unicode hex="FE28"/>
  <anchor x="0" y="0" name="_bottom"/>
  <anchor x="203" y="536" name="braceleft"/>
  <outline>
    <contour>
      <point x="0" y="-217" type="line"/>
      <point x="190" y="-217"/>
      <point x="325" y="-171"/>
      <point x="405" y="-26" type="curve"/>
      <point x="395" y="-26" type="line"/>
      <point x="339" y="-102"/>
      <point x="228" y="-137"/>
      <point x="0" y="-137" type="curve"/>
    </contour>
  </outline>
</glyph>
<glyph name="uniFE29" format="2">
  <unicode hex="FE29"/>
  <anchor x="0" y="0" name="_bottom"/>
  <anchor x="-205" y="536" name="braceleft"/>
  <outline>
    <contour>
      <point x="-409" y="-206" type="curve"/>
      <point x="-399" y="-206" type="line"/>
      <point x="-383" y="-182"/>
      <point x="-362" y="-159"/>
      <point x="-335" y="-144" type="curve" smooth="yes"/>
      <point x="-317" y="-134"/>
      <point x="-295" y="-127"/>
      <point x="-249" y="-127" type="curve" smooth="yes"/>
      <point x="-201" y="-127"/>
      <point x="-109" y="-150"/>
      <point x="0" y="-177" type="curve"/>
      <point x="0" y="-88" type="line"/>
      <point x="-79" y="-67"/>
      <point x="-152" y="-57"/>
      <point x="-218" y="-57" type="curve" smooth="yes"/>
      <point x="-316" y="-57"/>
      <point x="-384" y="-112"/>
    </contour>
  </outline>
</glyph>
<glyph name="uniFE2A" format="2">
  <unicode hex="FE2A"/>
  <anchor x="0" y="0" name="_bottom"/>
  <anchor x="204" y="536" name="braceleft"/>
  <outline>
    <contour>
      <point x="217" y="-208" type="curve" smooth="yes"/>
      <point x="315" y="-208"/>
      <point x="383" y="-153"/>
      <point x="408" y="-59" type="curve"/>
      <point x="398" y="-59" type="line"/>
      <point x="382" y="-83"/>
      <point x="361" y="-106"/>
      <point x="334" y="-121" type="curve" smooth="yes"/>
      <point x="316" y="-131"/>
      <point x="294" y="-138"/>
      <point x="248" y="-138" type="curve" smooth="yes"/>
      <point x="200" y="-138"/>
      <point x="108" y="-115"/>
      <point x="-1" y="-88" type="curve"/>
      <point x="-1" y="-177" type="line"/>
      <point x="78" y="-198"/>
      <point x="151" y="-208"/>
    </contour>
  </outline>
</glyph>
<glyph name="uniFE2E" format="2">
  <unicode hex="FE2E"/>
  <anchor x="-85" y="536" name="_top"/>
  <outline>
    <contour>
      <point x="-95" y="568" type="curve" smooth="yes"/>
      <point x="-57" y="568"/>
      <point x="-51" y="583"/>
      <point x="-51" y="633" type="curve"/>
      <point x="139" y="633" type="line"/>
      <point x="139" y="653" type="line"/>
      <point x="-95" y="653" type="line" smooth="yes"/>
      <point x="-125" y="653"/>
      <point x="-139" y="640"/>
      <point x="-139" y="611" type="curve" smooth="yes"/>
      <point x="-139" y="582"/>
      <point x="-125" y="568"/>
    </contour>
  </outline>
</glyph>
<glyph name="uniFE2F" format="2">
  <unicode hex="FE2F"/>
  <anchor x="85" y="536" name="_top"/>
  <outline>
    <contour>
      <point x="-139" y="630" type="line"/>
      <point x="95" y="630" type="line" smooth="yes"/>
      <point x="125" y="630"/>
      <point x="139" y="643"/>
      <point x="139" y="672" type="curve" smooth="yes"/>
      <point x="139" y="701"/>
      <point x="125" y="715"/>
      <point x="95" y="715" type="curve" smooth="yes"/>
      <point x="57" y="715"/>
      <point x="51" y="700"/>
      <point x="51" y="650" type="curve"/>
      <point x="-139" y="650" type="line"/>
    </contour>
  </outline>
</glyph>
<glyph name="eth.sc" format="2">
  <advance width="724"/>
  <anchor x="362" y="0" name="bottom"/>
  <anchor x="362" y="571" name="top"/>
  <anchor x="362" y="286" name="center"/>
  <anchor x="704" y="571" name="topright"/>
  <outline>
    <contour>
      <point x="25" y="292" type="line"/>
      <point x="389" y="292" type="line"/>
      <point x="389" y="302" type="line"/>
      <point x="25" y="302" type="line"/>
    </contour>
    <component base="d.sc"/>
  </outline>
</glyph>
